<?xml version="1.0" encoding="UTF-8" standalone="no"?>
<svg width="146px" height="62px" viewBox="0 0 146 62" version="1.1" xmlns="http://www.w3.org/2000/svg" xmlns:xlink="http://www.w3.org/1999/xlink">
    <!-- Generator: Sketch 46.2 (44496) - http://www.bohemiancoding.com/sketch -->
    <title>Page 1</title>
    <desc>Created with Sketch.</desc>
    <defs></defs>
    <g id="Style_Guide" stroke="none" stroke-width="1" fill="none" fill-rule="evenodd">
        <g id="Navigation" transform="translate(-183.000000, -657.000000)" fill="#FEFEFE">
            <g id="Page-1" transform="translate(183.825001, 657.159043)">
                <polygon id="Fill-1" points="25.4245864 16.3647472 17.6983649 38.1576745 9.64164224 16.3647472 -7.55719228e-05 16.3647472 13.2736289 48.855384 22.0563458 48.855384 34.6698035 16.3647472"></polygon>
                <g id="Group-8" transform="translate(35.518804, 0.201021)">
                    <path d="M1.24668482,48.6542115 L10.0296537,48.6542115 L10.0296537,16.1635748 L1.24668482,16.1635748 L1.24668482,48.6542115 Z M5.60516951,0.0508850947 C8.6429089,0.0508850947 11.0204016,2.49462917 11.0204016,5.53236856 C11.0204016,8.43735327 8.6429089,10.8810974 5.60516951,10.8810974 C2.6334296,10.8810974 0.190189339,8.43735327 0.190189339,5.53236856 C0.190189339,2.49462917 2.6334296,0.0508850947 5.60516951,0.0508850947 L5.60516951,0.0508850947 Z" id="Fill-2"></path>
                    <path d="M13.9669509,48.6542115 L22.7496678,48.6542115 L22.7496678,16.1635748 L13.9669509,16.1635748 L13.9669509,48.6542115 Z M18.3251837,0.0508850947 C21.362923,0.0508850947 23.7404157,2.49462917 23.7404157,5.53236856 C23.7404157,8.43735327 21.362923,10.8810974 18.3251837,10.8810974 C15.3534437,10.8810974 12.9102035,8.43735327 12.9102035,5.53236856 C12.9102035,2.49462917 15.3534437,0.0508850947 18.3251837,0.0508850947 L18.3251837,0.0508850947 Z" id="Fill-4"></path>
                    <path d="M43.3873523,23.1643813 C38.96312,23.1643813 35.2646301,26.3998673 35.2646301,32.3425914 C35.2646301,38.2200717 38.96312,41.5883123 43.3873523,41.5883123 C47.8780879,41.5883123 51.444075,38.2863231 51.444075,32.3425914 C51.444075,26.3998673 47.8780879,23.1643813 43.3873523,23.1643813 L43.3873523,23.1643813 Z M26.746163,48.6542871 L26.746163,0.843710137 L35.396881,0.843710137 L35.396881,19.7298894 C36.8498772,17.4186481 40.4161162,15.3054052 45.2368492,15.3054052 C54.7463161,15.3054052 60.2272958,22.6358817 60.2272958,32.2773476 C60.2272958,42.116812 54.1515651,49.4470366 44.9060961,49.4470366 C40.4161162,49.4470366 36.9818761,47.4655407 35.2646301,44.6920512 L35.2646301,48.6542871 L26.746163,48.6542871 Z" id="Fill-5"></path>
                    <polygon id="Fill-6" points="62.9919686 48.9847127 71.7746856 48.9847127 71.7746856 1.17413577 62.9919686 1.17413577"></polygon>
                    <polygon id="Fill-7" points="79.9696293 61.4651135 87.6945913 44.6921771 73.8278992 16.1637763 83.6676154 16.1637763 92.3185853 35.1824583 100.309309 16.1637763 109.686525 16.1637763 89.280594 61.4651135"></polygon>
                </g>
            </g>
        </g>
    </g>
</svg>