<?xml version="1.0" encoding="UTF-8"?>
<svg width="16px" height="17px" viewBox="0 0 16 17" version="1.1" xmlns="http://www.w3.org/2000/svg" xmlns:xlink="http://www.w3.org/1999/xlink">
    <!-- Generator: Sketch 46.2 (44496) - http://www.bohemiancoding.com/sketch -->
    <title>Spotify</title>
    <desc>Created with Sketch.</desc>
    <defs></defs>
    <g id="Style_Guide" stroke="none" stroke-width="1" fill="none" fill-rule="evenodd">
        <g id="Navigation" transform="translate(-1233.000000, -169.000000)" fill="#FFFFFF">
            <g id="Group-4-Copy-2" transform="translate(90.174135, 135.000000)">
                <g id="Group-5" transform="translate(1143.094794, 34.675399)">
                    <g id="Spotify" transform="translate(0.000000, 0.000000)">
                        <path d="M13.2143596,6.57579448 C13.0103984,6.91868588 12.5696125,7.03066461 12.2253301,6.82861603 C9.73988915,5.35080976 5.63858119,5.21640051 3.26546672,5.9360899 C2.88484336,6.05258951 2.48231112,5.83645665 2.36442047,5.45548553 C2.2501813,5.07451442 2.465097,4.67041726 2.84658976,4.55617808 C5.57181126,3.72816144 10.1005163,3.88830494 12.961712,5.58746047 C13.305125,5.79090009 13.4177993,6.23359861 13.2143596,6.57579448 M12.1436065,9.12817925 C11.9702481,9.41090816 11.6000576,9.49871757 11.3175025,9.32466367 C9.24572214,8.05116643 6.08423567,7.68201915 3.63183191,8.4263995 C3.31328372,8.52255515 2.97665201,8.34328485 2.88153964,8.02647546 C2.78503623,7.70792727 2.96448041,7.37164332 3.2812898,7.27566155 C6.08319239,6.42504051 9.56566137,6.83696227 11.9467743,8.29998873 C12.2295032,8.47543367 12.3193992,8.84353766 12.1436065,9.12817925 M11.2008291,11.3468883 C11.06329,11.5757144 10.7682156,11.6461358 10.5413021,11.5084228 C8.72895073,10.4016765 6.44938371,10.1511154 3.76415461,10.7638686 C3.5057689,10.8235094 3.2473832,10.6616271 3.19000279,10.4025459 C3.12984031,10.1443341 3.29137484,9.88664389 3.55115159,9.82787244 C6.48868059,9.15634781 9.00924532,9.44655356 11.0419027,10.6866658 C11.2677729,10.8254221 11.3399331,11.1206704 11.2008291,11.3468883 M7.82460076,0 C3.50333458,0 0,3.5031607 0,7.82460076 C0,12.1460408 3.50333458,15.6492015 7.82460076,15.6492015 C12.1460408,15.6492015 15.6492015,12.1460408 15.6492015,7.82460076 C15.6492015,3.5031607 12.1460408,0 7.82460076,0" id="Fill-185"></path>
                    </g>
                </g>
            </g>
        </g>
    </g>
</svg>