<?xml version="1.0" encoding="UTF-8"?>
<svg width="14px" height="13px" viewBox="0 0 14 13" version="1.1" xmlns="http://www.w3.org/2000/svg" xmlns:xlink="http://www.w3.org/1999/xlink">
    <!-- Generator: Sketch 46.2 (44496) - http://www.bohemiancoding.com/sketch -->
    <title>Twitter</title>
    <desc>Created with Sketch.</desc>
    <defs></defs>
    <g id="Style_Guide" stroke="none" stroke-width="1" fill="none" fill-rule="evenodd">
        <g id="Navigation" transform="translate(-1269.000000, -171.000000)" fill="#FFFFFF">
            <g id="Group-4-Copy-2" transform="translate(90.174135, 135.000000)">
                <g id="Group-5" transform="translate(1143.094794, 34.675399)">
                    <g id="Twitter" transform="translate(35.769603, 2.235600)">
                        <path d="M13.0317608,0.248094301 C12.6420212,0.504137403 11.7471849,0.876202424 11.3058774,0.876202424 L11.3058774,0.876966732 C10.8019731,0.337059725 10.0925427,0 9.30576043,0 C7.77765316,0 6.53853448,1.27089095 6.53853448,2.83756902 C6.53853448,3.05524387 6.56312608,3.26756857 6.60858329,3.47118015 L6.60813617,3.47118015 C4.53528764,3.41538569 2.26823998,2.3497878 0.903480568,0.525996605 C0.0643852863,2.01563244 0.790508237,3.67234596 1.74272489,4.27599623 C1.41677438,4.30121839 0.81673928,4.23747512 0.534308452,3.95483411 C0.51538037,4.94354264 0.978894816,6.25356615 2.66900858,6.72881272 C2.34350519,6.90842504 1.76731649,6.8569107 1.51678023,6.81869531 C1.60471384,7.65331939 2.74427379,8.74444516 3.99039735,8.74444516 C3.54625811,9.27135894 1.87522146,10.2270494 0,9.92300774 C1.27354692,10.717735 2.75783643,11.1780011 4.32886722,11.1780011 C8.79336086,11.1780011 12.2604787,7.46698116 12.0738806,2.8889305 C12.0731354,2.88388607 12.0731354,2.87884163 12.0726883,2.87333862 C12.0731354,2.86156828 12.0738806,2.84979794 12.0738806,2.83756902 C12.0738806,2.82335289 12.0726883,2.80990107 12.0722412,2.79614353 C12.4786733,2.51105674 13.0240107,2.00676647 13.4136013,1.34304161 C13.1876566,1.47068101 12.5098227,1.72626552 11.8790853,1.78970307 C12.283878,1.56560803 12.883615,0.831719712 13.0317608,0.248094301" id="Fill-1"></path>
                    </g>
                </g>
            </g>
        </g>
    </g>
</svg>