<?xml version="1.0" encoding="UTF-8"?>
<svg width="36px" height="36px" viewBox="0 0 36 36" version="1.1" xmlns="http://www.w3.org/2000/svg" xmlns:xlink="http://www.w3.org/1999/xlink">
    <!-- Generator: Sketch 46.2 (44496) - http://www.bohemiancoding.com/sketch -->
    <title>Group</title>
    <desc>Created with Sketch.</desc>
    <defs></defs>
    <g id="Inspiration" stroke="none" stroke-width="1" fill="none" fill-rule="evenodd">
        <g id="Desktop-HD-Copy" transform="translate(-83.000000, -25.000000)" fill="#FFFFFF">
            <g id="Group-4">
                <g id="Group" transform="translate(83.000000, 25.000000)">
                    <path d="M25.8964,15.89688 C20.3964,15.89688 15.9364,20.35688 15.9364,25.85688 C15.9364,31.35688 20.3964,35.81688 25.8964,35.81688 C31.3964,35.81688 35.8564,31.35688 35.8564,25.85688 C35.8564,20.35688 31.3964,15.89688 25.8964,15.89688 M25.8964,19.89688 C29.1844,19.89688 31.8564,22.56888 31.8564,25.85688 C31.8564,29.14488 29.1844,31.81688 25.8964,31.81688 C22.6124,31.81688 19.9364,29.14488 19.9364,25.85688 C19.9364,22.56888 22.6124,19.89688 25.8964,19.89688" id="Fill-1"></path>
                    <path d="M9.9608,15.89688 C4.4608,15.89688 0.0008,20.35688 0.0008,25.85688 C0.0008,31.35688 4.4608,35.81688 9.9608,35.81688 C15.4608,35.81688 19.9208,31.35688 19.9208,25.85688 C19.9208,20.35688 15.4608,15.89688 9.9608,15.89688 M9.9608,19.89688 C13.2488,19.89688 15.9208,22.56888 15.9208,25.85688 C15.9208,29.14488 13.2488,31.81688 9.9608,31.81688 C6.6728,31.81688 4.0008,29.14488 4.0008,25.85688 C4.0008,22.56888 6.6728,19.89688 9.9608,19.89688" id="Fill-4"></path>
                    <path d="M25.8964,8.00000001e-05 C20.3964,8.00000001e-05 15.9364,4.46008 15.9364,9.96008 C15.9364,15.46008 20.3964,19.92008 25.8964,19.92008 C31.3964,19.92008 35.8564,15.46008 35.8564,9.96008 C35.8564,4.46008 31.3964,8.00000001e-05 25.8964,8.00000001e-05 M25.8964,4.00008 C29.1844,4.00008 31.8564,6.67208 31.8564,9.96008 C31.8564,13.24808 29.1844,15.92008 25.8964,15.92008 C22.6124,15.92008 19.9364,13.24808 19.9364,9.96008 C19.9364,6.67208 22.6124,4.00008 25.8964,4.00008" id="Fill-6"></path>
                    <path d="M9.9608,8.00000001e-05 C4.4608,8.00000001e-05 0.0008,4.46008 0.0008,9.96008 C0.0008,15.46008 4.4608,19.92008 9.9608,19.92008 C15.4608,19.92008 19.9208,15.46008 19.9208,9.96008 C19.9208,4.46008 15.4608,8.00000001e-05 9.9608,8.00000001e-05 M9.9608,4.00008 C13.2488,4.00008 15.9208,6.67208 15.9208,9.96008 C15.9208,13.24808 13.2488,15.92008 9.9608,15.92008 C6.6728,15.92008 4.0008,13.24808 4.0008,9.96008 C4.0008,6.67208 6.6728,4.00008 9.9608,4.00008" id="Fill-9"></path>
                </g>
            </g>
        </g>
    </g>
</svg>